<svg width="1882" height="255" viewBox="0 0 1882 255" fill="none" xmlns="http://www.w3.org/2000/svg">
<path d="M124.987 254.15C52.5373 254.15 0.737305 199.55 0.737305 126.4C0.737305 54.65 52.5373 0.0499973 124.987 0.0499973C197.437 0.0499973 249.237 54.65 249.237 126.4C249.237 199.55 197.437 254.15 124.987 254.15ZM124.987 232.45C187.287 232.45 223.337 184.5 223.337 126.4C223.337 69 187.287 22.1 124.987 22.1C62.6873 22.1 26.6373 69 26.6373 126.4C26.6373 184.5 62.6873 232.45 124.987 232.45ZM124.987 182.05C94.1873 182.05 71.7873 158.6 71.7873 126.75C71.7873 95.95 94.1873 72.5 124.987 72.5C147.737 72.5 165.937 85.8 173.637 105.4L152.987 113.8C149.137 102.25 139.687 94.2 125.337 94.2C106.087 94.2 94.8873 108.55 94.8873 126.75C94.8873 145.3 106.087 160.35 125.337 160.35C139.687 160.35 149.137 151.95 152.987 140.4L173.987 148.8C166.287 168.75 148.087 182.05 124.987 182.05ZM409.291 177.5L396.341 144.25H391.791H368.341V177.5H343.841V75.65H393.541C415.241 75.65 433.091 87.9 433.091 107.85C433.091 120.45 427.491 130.95 418.041 137.25L434.141 177.5H409.291ZM387.591 124.65C403.341 124.65 409.641 117.65 409.641 109.25C409.641 101.2 403.341 96.3 387.591 96.3H368.341V124.65H387.591ZM387.241 254.5C314.791 254.5 262.991 199.9 262.991 126.75C262.991 55 314.791 0.399993 387.241 0.399993C459.691 0.399993 511.491 55 511.491 126.75C511.491 199.9 459.691 254.5 387.241 254.5ZM387.241 232.8C449.541 232.8 485.591 184.5 485.591 126.75C485.591 69 449.541 22.1 387.241 22.1C324.941 22.1 288.891 69 288.891 126.75C288.891 184.5 324.941 232.8 387.241 232.8ZM612.395 254.5C561.645 254.5 525.245 215.3 525.245 163.5C525.245 111.7 561.645 72.5 610.295 72.5C657.195 72.5 692.895 108.2 692.895 156.85C692.895 158.95 692.895 167 692.545 169.8H554.645C556.395 202.35 573.545 227.9 610.995 227.9C642.495 227.9 659.995 211.45 667.345 188.7L693.245 199.55C679.595 232.1 652.295 254.5 612.395 254.5ZM556.045 144.6H662.445C658.945 118.7 642.145 99.1 609.945 99.1C578.445 99.1 561.295 118.35 556.045 144.6ZM783.201 254.85C749.951 254.85 714.601 239.8 714.601 199.55C714.601 153.7 761.851 148.45 797.201 148.45C818.901 148.45 840.251 148.45 840.251 131.65C840.251 120.1 829.051 99.1 795.451 99.1C767.801 99.1 747.151 114.85 740.501 137.25L714.601 126.4C726.501 95.95 751.701 72.5 795.101 72.5C836.401 72.5 867.201 94.2 867.201 148.45V251H838.851V230.7C829.401 244.7 810.151 254.85 783.201 254.85ZM786.351 228.25C815.051 228.25 840.601 217.05 840.601 186.6V167.35C830.451 173.3 810.151 174 793.351 174C762.901 174 743.651 178.2 743.651 200.6C743.651 220.55 763.601 228.25 786.351 228.25ZM999.566 251C990.116 253.8 982.766 254.5 974.366 254.5C944.266 254.5 915.216 237 915.216 190.1V102.95H885.116V76C908.216 76 915.216 68.65 915.216 46.6V24.9H943.566V76H999.566V102.95H943.566V190.1C943.566 217.75 956.166 227.9 977.166 227.9C983.816 227.9 989.416 227.2 999.566 221.6V251ZM1027.19 251V76H1055.54V251H1027.19ZM1041.19 44.15C1028.59 44.15 1018.79 34.7 1018.79 22.1C1018.79 9.49998 1028.59 0.0499973 1041.19 0.0499973C1053.44 0.0499973 1063.24 9.49998 1063.24 22.1C1063.24 34.7 1053.44 44.15 1041.19 44.15ZM1150.53 251L1078.08 76H1108.53L1167.68 222.65L1226.48 76H1257.28L1184.83 251H1150.53ZM1351.7 254.5C1300.95 254.5 1264.55 215.3 1264.55 163.5C1264.55 111.7 1300.95 72.5 1349.6 72.5C1396.5 72.5 1432.2 108.2 1432.2 156.85C1432.2 158.95 1432.2 167 1431.85 169.8H1293.95C1295.7 202.35 1312.85 227.9 1350.3 227.9C1381.8 227.9 1399.3 211.45 1406.65 188.7L1432.55 199.55C1418.9 232.1 1391.6 254.5 1351.7 254.5ZM1295.35 144.6H1401.75C1398.25 118.7 1381.45 99.1 1349.25 99.1C1317.75 99.1 1300.6 118.35 1295.35 144.6ZM1475.97 254.5C1463.02 254.5 1453.22 244.7 1453.22 231.4C1453.22 218.8 1463.02 209 1475.97 209C1488.92 209 1498.72 218.8 1498.72 231.4C1498.72 244.7 1488.92 254.5 1475.97 254.5ZM1609.04 254.5C1559.69 254.5 1523.29 215.3 1523.29 163.5C1523.29 111.7 1559.69 72.5 1609.04 72.5C1651.04 72.5 1677.29 94.55 1688.14 126.75L1662.94 136.9C1655.24 114.5 1640.89 99.45 1608.69 99.45C1574.04 99.45 1552.34 126.75 1552.34 163.5C1552.34 200.25 1574.04 227.55 1608.69 227.55C1640.89 227.55 1655.24 212.5 1662.94 190.1L1688.14 200.25C1677.29 232.45 1651.04 254.5 1609.04 254.5ZM1794.34 254.5C1743.24 254.5 1706.84 215.3 1706.84 163.5C1706.84 111.7 1743.24 72.5 1794.34 72.5C1845.44 72.5 1881.49 111.7 1881.49 163.5C1881.49 215.3 1845.44 254.5 1794.34 254.5ZM1794.34 227.55C1831.09 227.55 1852.09 200.25 1852.09 163.5C1852.09 126.75 1831.09 99.45 1794.34 99.45C1757.24 99.45 1735.89 126.75 1735.89 163.5C1735.89 200.25 1757.24 227.55 1794.34 227.55Z" fill="#1A1A1A"/>
</svg>
