<svg width="1882" height="245" viewBox="0 0 1882 245" fill="none" xmlns="http://www.w3.org/2000/svg">
<path d="M0.222787 225V3.70899H25.5758V144.559L101.635 68.5H136.378L71.5868 133.604L143.264 225H110.712L54.0588 150.819L25.5758 179.615V225H0.222787ZM213.486 228.13C168.101 228.13 135.549 193.074 135.549 146.75C135.549 100.426 168.101 65.37 211.608 65.37C253.55 65.37 285.476 97.296 285.476 140.803C285.476 142.681 285.476 149.88 285.163 152.384H161.841C163.406 181.493 178.743 204.342 212.234 204.342C240.404 204.342 256.054 189.631 262.627 169.286L285.789 178.989C273.582 208.098 249.168 228.13 213.486 228.13ZM163.093 129.848H258.245C255.115 106.686 240.091 89.158 211.295 89.158C183.125 89.158 167.788 106.373 163.093 129.848ZM373.434 228.13C328.049 228.13 295.497 193.074 295.497 146.75C295.497 100.426 328.049 65.37 371.556 65.37C413.498 65.37 445.424 97.296 445.424 140.803C445.424 142.681 445.424 149.88 445.111 152.384H321.789C323.354 181.493 338.691 204.342 372.182 204.342C400.352 204.342 416.002 189.631 422.575 169.286L445.737 178.989C433.53 208.098 409.116 228.13 373.434 228.13ZM323.041 129.848H418.193C415.063 106.686 400.039 89.158 371.243 89.158C343.073 89.158 327.736 106.373 323.041 129.848ZM460.504 270.698V68.5H485.857V90.723C499.003 74.447 518.409 65.37 539.38 65.37C575.688 65.37 612.622 91.975 612.622 146.75C612.622 201.525 575.688 228.13 539.38 228.13C518.409 228.13 499.003 219.053 485.857 202.777V270.698H460.504ZM537.189 89.784C506.202 89.784 486.17 111.694 486.17 146.75C486.17 181.806 506.202 203.716 537.189 203.716C567.863 203.716 586.33 182.745 586.33 146.75C586.33 110.755 567.863 89.784 537.189 89.784ZM752.873 228.13C707.175 228.13 688.395 205.907 681.196 188.692L705.297 178.676C710.931 192.135 721.886 204.342 752.873 204.342C782.921 204.342 792.311 193.074 792.311 180.241C792.311 164.278 773.844 160.522 754.751 159.896C712.496 157.705 685.265 143.933 685.265 113.572C685.265 83.837 712.183 65.37 747.239 65.37C791.372 65.37 811.091 93.227 816.412 104.182L791.998 114.198C787.303 104.495 773.844 89.158 746.613 89.158C724.703 89.158 711.244 98.548 711.244 113.259C711.244 127.657 725.642 132.352 752.56 133.917C784.173 135.795 818.603 144.559 818.603 178.989C818.603 203.716 800.136 228.13 752.873 228.13ZM904.991 228.13C860.858 228.13 828.306 193.074 828.306 146.75C828.306 100.426 860.858 65.37 904.991 65.37C942.551 65.37 966.026 85.089 975.729 113.885L953.193 122.962C946.307 102.93 933.474 89.471 904.678 89.471C873.691 89.471 854.285 113.885 854.285 146.75C854.285 179.615 873.691 204.029 904.678 204.029C933.474 204.029 946.307 190.57 953.193 170.538L975.729 179.615C966.026 208.411 942.551 228.13 904.991 228.13ZM1113.89 159.27L1102.31 129.535H1098.24H1077.27V159.27H1055.36V68.187H1099.81C1119.21 68.187 1135.18 79.142 1135.18 96.983C1135.18 108.251 1130.17 117.641 1121.72 123.275L1136.11 159.27H1113.89ZM1094.49 112.007C1108.57 112.007 1114.2 105.747 1114.2 98.235C1114.2 91.036 1108.57 86.654 1094.49 86.654H1077.27V112.007H1094.49ZM1094.17 228.13C1029.38 228.13 983.057 179.302 983.057 113.885C983.057 49.72 1029.38 0.891994 1094.17 0.891994C1158.96 0.891994 1205.29 49.72 1205.29 113.885C1205.29 179.302 1158.96 228.13 1094.17 228.13ZM1094.17 208.724C1149.89 208.724 1182.13 165.53 1182.13 113.885C1182.13 62.24 1149.89 20.298 1094.17 20.298C1038.46 20.298 1006.22 62.24 1006.22 113.885C1006.22 165.53 1038.46 208.724 1094.17 208.724ZM1295.84 228.13C1250.14 228.13 1217.59 193.074 1217.59 146.75C1217.59 100.426 1250.14 65.37 1295.84 65.37C1341.54 65.37 1373.77 100.426 1373.77 146.75C1373.77 193.074 1341.54 228.13 1295.84 228.13ZM1295.84 204.029C1328.7 204.029 1347.48 179.615 1347.48 146.75C1347.48 113.885 1328.7 89.471 1295.84 89.471C1262.66 89.471 1243.57 113.885 1243.57 146.75C1243.57 179.615 1262.66 204.029 1295.84 204.029ZM1398.71 225V3.70899H1424.06V225H1398.71ZM1453.73 225V3.70899H1479.08V225H1453.73ZM1508.75 225V68.5H1534.1V225H1508.75ZM1521.27 40.017C1510 40.017 1501.24 31.566 1501.24 20.298C1501.24 9.02998 1510 0.578998 1521.27 0.578998C1532.22 0.578998 1540.99 9.02998 1540.99 20.298C1540.99 31.566 1532.22 40.017 1521.27 40.017ZM1563.77 225V68.5H1589.12V90.723C1602.58 74.134 1621.99 65.37 1643.27 65.37C1676.76 65.37 1703.05 85.715 1703.05 133.291V225H1677.7V131.1C1677.7 106.06 1662.36 89.784 1639.83 89.784C1615.41 89.784 1589.12 106.686 1589.12 146.75V225H1563.77ZM1800.68 273.828C1742.77 273.828 1723.68 251.292 1723.68 230.634C1723.68 218.114 1730.88 206.22 1742.46 200.899C1734.63 195.891 1731.82 188.692 1731.82 181.493C1731.82 171.79 1737.14 161.461 1749.66 155.827C1739.33 146.75 1733.69 133.917 1733.69 118.58C1733.69 85.715 1759.67 65.37 1801.62 65.37C1819.46 65.37 1833.85 69.126 1844.5 76.638C1852.32 68.187 1864.22 65.37 1874.23 65.37C1876.74 65.37 1878.93 65.683 1881.12 65.996V87.593C1879.87 87.28 1877.67 86.654 1874.86 86.654C1869.85 86.654 1864.53 88.532 1861.4 92.914C1866.72 99.8 1869.54 109.19 1869.54 118.58C1869.54 149.88 1843.56 171.79 1801.62 171.79C1788.47 171.79 1776.89 169.912 1767.19 166.156C1762.49 168.973 1758.73 173.042 1758.73 177.111C1758.73 188.379 1777.51 189.318 1799.42 189.318C1832.6 189.318 1875.17 191.196 1875.17 229.069C1875.17 255.048 1855.76 273.828 1800.68 273.828ZM1801.62 249.727C1833.85 249.727 1849.19 243.154 1849.19 229.695C1849.19 212.167 1823.84 212.167 1797.55 212.167C1784.71 212.167 1771.57 211.854 1762.49 209.976C1755.29 213.106 1749.97 219.992 1749.97 228.13C1749.97 239.398 1760.93 249.727 1801.62 249.727ZM1801.62 147.689C1828.85 147.689 1843.56 137.986 1843.56 118.58C1843.56 99.174 1828.85 89.471 1801.62 89.471C1774.38 89.471 1759.99 99.174 1759.99 118.58C1759.99 137.986 1774.38 147.689 1801.62 147.689ZM1771.88 208.098H1772.51H1771.88Z" fill="#1A1A1A"/>
</svg>
